# xmcd
#
# Track frame offsets: 
#        150
#        7873
#        16460
#        24854
#        38137
#        47006
#        60455
#        71203
#        81591
#        92170
#        104351
#        112589
#        121961
#        130555
#        137495
#        147621
#        156605
#        163428
#        174682
#        183422
#
# Disc length: 2541 seconds
#
# Revision: 0
# Processed by: cddbd v1.5.2PL0 Copyright (c) Steve Scherf et al.
# Submitted via: ExactAudioCopy v0.99pb5
#
DISCID=1209eb14
DTITLE=Gene Autry - 80 Original Hits and Rarities CD4
DYEAR=1900
DGENRE=Country
TTITLE0=Peter Cottontail
TTITLE1=Chattanoogie Shoe Shine Boy
TTITLE2=Gone Fishin
TTITLE3=Teardrops From My Eyes
TTITLE4=Jingle, Jangle, Jingle
TTITLE5=South Of The Border
TTITLE6=The Last Round Up
TTITLE7=Don't Fence Me In
TTITLE8=Ridin' Down The Canyon
TTITLE9=Was Just Walking Out The Door
TTITLE10=You'Re The Only Star In My Blue Heaven
TTITLE11=Frosty The Snow Man
TTITLE12=Have I Told You Lately That I Love You
TTITLE13=I'm Thinking Tonight Of My Blue Eyes
TTITLE14=Your Cheatin' Heart
TTITLE15=I Hang My Head And Cry
TTITLE16=It's My Lazy Day
TTITLE17=Harbor Lights
TTITLE18=The Leaf Of Love
TTITLE19=You've Got To Take The Bitter With The Sweet
EXTD=
EXTT0=
EXTT1=
EXTT2=
EXTT3=
EXTT4=
EXTT5=
EXTT6=
EXTT7=
EXTT8=
EXTT9=
EXTT10=
EXTT11=
EXTT12=
EXTT13=
EXTT14=
EXTT15=
EXTT16=
EXTT17=
EXTT18=
EXTT19=
PLAYORDER=
